# xmcd CD database file
#
# Track frame offsets:
#	150
#	22672
#	39770
#	58090
#	75195
#	96062
#	117797
#	140837
#	164630
#	187595
#	214227
#
# Disc length: 3107 seconds
#
# Revision: 0
# Processed by: cddbd v1.5.2PL0 Copyright (c) Steve Scherf et al.
# Submitted via: CDex 1.70beta2
#
DISCID=810c210b
DTITLE=Liesl - 362 - Talk about Job-Sharing
DYEAR=1900
DGENRE=Jazz
TTITLE0=Always
TTITLE1=Thought
TTITLE2=Rescue me
TTITLE3=Never lean back
TTITLE4=Undecieded
TTITLE5=Real Pictures
TTITLE6=Love Song
TTITLE7=Moonshine Station
TTITLE8=Snatch
TTITLE9=The Wolf
TTITLE10=Kids
EXTD=
EXTT0=
EXTT1=
EXTT2=
EXTT3=
EXTT4=
EXTT5=
EXTT6=
EXTT7=
EXTT8=
EXTT9=
EXTT10=
PLAYORDER=
